<?xml version="1.0" encoding="UTF-8" standalone="no"?>
<svg
   xmlns:dc="http://purl.org/dc/elements/1.1/"
   xmlns:cc="http://creativecommons.org/ns#"
   xmlns:rdf="http://www.w3.org/1999/02/22-rdf-syntax-ns#"
   xmlns:svg="http://www.w3.org/2000/svg"
   xmlns="http://www.w3.org/2000/svg"
   viewBox="0 0 546.66669 144"
   height="144"
   width="546.66669"
   xml:space="preserve"
   id="svg2"
   version="1.1"><metadata
     id="metadata8"><rdf:RDF><cc:Work
         rdf:about=""><dc:format>image/svg+xml</dc:format><dc:type
           rdf:resource="http://purl.org/dc/dcmitype/StillImage" /></cc:Work></rdf:RDF></metadata><defs
     id="defs6"><clipPath
       id="clipPath18"
       clipPathUnits="userSpaceOnUse"><path
         id="path16"
         d="M 0,108 H 410 V 0 H 0 Z" /></clipPath></defs><g
     transform="matrix(1.3333333,0,0,-1.3333333,0,144)"
     id="g10"><g
       id="g12"><g
         clip-path="url(#clipPath18)"
         id="g14"><g
           transform="translate(178.3682,56.3926)"
           id="g20"><path
             id="path22"
             style="fill:#100f0d;fill-opacity:1;fill-rule:nonzero;stroke:none"
             d="M 0,0 H 28.098 C 26.981,2.792 25.151,5.07 22.608,6.839 20.065,8.607 17.213,9.49 14.048,9.49 10.822,9.49 7.954,8.607 5.442,6.839 2.931,5.07 1.116,2.792 0,0 m 13.956,-26.331 c -2.853,0 -5.536,0.539 -8.048,1.625 -2.512,1.081 -4.692,2.552 -6.541,4.409 -1.849,1.856 -3.305,4.038 -4.373,6.543 -1.066,2.507 -1.6,5.184 -1.6,8.033 0,2.846 0.534,5.521 1.6,8.028 1.068,2.507 2.524,4.689 4.373,6.546 1.849,1.856 4.029,3.326 6.541,4.409 2.512,1.083 5.195,1.625 8.048,1.625 2.543,0 4.962,-0.433 7.257,-1.296 2.296,-0.865 4.342,-2.055 6.141,-3.567 1.798,-1.512 3.318,-3.336 4.559,-5.464 1.242,-2.131 2.049,-4.432 2.419,-6.9 0.124,-0.928 -0.092,-1.667 -0.651,-2.222 -0.497,-0.683 -1.179,-1.02 -2.046,-1.02 H -1.21 v -0.094 c 0,-2.122 0.403,-4.105 1.21,-5.946 0.806,-1.84 1.891,-3.448 3.256,-4.82 1.364,-1.372 2.962,-2.464 4.792,-3.276 1.829,-0.811 3.799,-1.217 5.908,-1.217 2.356,0 4.605,0.526 6.744,1.582 2.143,1.055 3.923,2.543 5.352,4.467 0.309,0.433 0.606,0.898 0.885,1.395 0.276,0.496 0.542,0.992 0.789,1.489 0.309,0.682 0.822,1.147 1.535,1.395 0.714,0.248 1.411,0.217 2.093,-0.094 0.682,-0.31 1.164,-0.822 1.444,-1.534 0.279,-0.714 0.264,-1.412 -0.047,-2.094 -0.684,-1.487 -1.459,-2.79 -2.326,-3.907 -1.987,-2.592 -4.406,-4.59 -7.257,-5.991 -2.856,-1.404 -5.924,-2.104 -9.212,-2.104" /></g><g
           transform="translate(282.3887,35.4575)"
           id="g24"><path
             id="path26"
             style="fill:#100f0d;fill-opacity:1;fill-rule:nonzero;stroke:none"
             d="M 0,0 C 0.807,0 1.474,-0.265 2.001,-0.791 2.527,-1.318 2.793,-1.953 2.793,-2.697 2.793,-3.442 2.527,-4.079 2.001,-4.605 1.474,-5.134 0.807,-5.396 0,-5.396 c -1.241,0 -2.402,0.232 -3.488,0.698 -1.087,0.464 -2.048,1.116 -2.886,1.954 -0.836,0.836 -1.487,1.799 -1.953,2.885 -0.466,1.084 -0.697,2.247 -0.697,3.487 v 53.221 c 0,0.745 0.262,1.381 0.791,1.908 0.526,0.526 1.164,0.791 1.908,0.791 0.744,0 1.377,-0.265 1.905,-0.791 0.528,-0.527 0.791,-1.163 0.791,-1.908 V 3.628 c 0,-0.991 0.358,-1.845 1.07,-2.557 C -1.846,0.357 -0.992,0 0,0" /></g><g
           transform="translate(316.9521,65.8823)"
           id="g28"><path
             id="path30"
             style="fill:#100f0d;fill-opacity:1;fill-rule:nonzero;stroke:none"
             d="m 0,0 c -2.115,0 -4.09,-0.405 -5.926,-1.212 -1.835,-0.809 -3.437,-1.899 -4.805,-3.267 -1.372,-1.37 -2.458,-2.973 -3.268,-4.807 -0.809,-1.836 -1.212,-3.81 -1.212,-5.925 0,-2.118 0.403,-4.093 1.212,-5.929 0.81,-1.834 1.896,-3.437 3.268,-4.805 1.368,-1.369 2.97,-2.458 4.805,-3.267 1.836,-0.807 3.811,-1.213 5.926,-1.213 2.117,0 4.092,0.406 5.927,1.213 1.834,0.809 3.436,1.898 4.806,3.267 1.37,1.368 2.459,2.971 3.268,4.805 0.807,1.836 1.213,3.811 1.213,5.929 0,2.115 -0.406,4.089 -1.213,5.925 -0.809,1.834 -1.898,3.437 -3.268,4.807 -1.37,1.368 -2.972,2.458 -4.806,3.267 C 4.092,-0.405 2.117,0 0,0 m 0,-35.82 c -2.846,0 -5.522,0.539 -8.028,1.624 -2.507,1.081 -4.689,2.552 -6.546,4.409 -1.857,1.856 -3.327,4.038 -4.408,6.543 -1.085,2.508 -1.625,5.184 -1.625,8.033 0,2.846 0.54,5.522 1.625,8.028 1.081,2.507 2.551,4.689 4.408,6.546 1.857,1.856 4.039,3.326 6.546,4.409 2.506,1.083 5.182,1.625 8.028,1.625 2.849,0 5.523,-0.542 8.03,-1.625 2.508,-1.083 4.69,-2.553 6.546,-4.409 1.855,-1.857 3.325,-4.039 4.408,-6.546 1.083,-2.506 1.625,-5.182 1.625,-8.028 0,-2.849 -0.542,-5.525 -1.625,-8.033 -1.083,-2.505 -2.553,-4.687 -4.408,-6.543 C 12.72,-31.644 10.538,-33.115 8.03,-34.196 5.523,-35.281 2.849,-35.82 0,-35.82" /></g><g
           transform="translate(366.2656,65.8823)"
           id="g32"><path
             id="path34"
             style="fill:#100f0d;fill-opacity:1;fill-rule:nonzero;stroke:none"
             d="m 0,0 c -2.115,0 -4.092,-0.405 -5.926,-1.212 -1.835,-0.809 -3.436,-1.899 -4.807,-3.267 -1.369,-1.37 -2.456,-2.973 -3.268,-4.807 -0.807,-1.836 -1.212,-3.81 -1.212,-5.925 0,-2.118 0.405,-4.093 1.212,-5.929 0.812,-1.834 1.899,-3.437 3.268,-4.805 1.371,-1.369 2.972,-2.458 4.807,-3.267 1.834,-0.807 3.811,-1.213 5.926,-1.213 2.115,0 4.092,0.406 5.927,1.213 1.834,0.809 3.436,1.898 4.806,3.267 1.37,1.368 2.457,2.971 3.266,4.805 0.81,1.836 1.215,3.811 1.215,5.929 0,2.115 -0.405,4.089 -1.215,5.925 -0.809,1.834 -1.896,3.437 -3.266,4.807 -1.37,1.368 -2.972,2.458 -4.806,3.267 C 4.092,-0.405 2.115,0 0,0 m 0,-35.82 c -2.846,0 -5.522,0.539 -8.03,1.624 -2.507,1.081 -4.687,2.552 -6.546,4.409 -1.855,1.856 -3.325,4.038 -4.408,6.543 -1.083,2.508 -1.622,5.184 -1.622,8.033 0,2.846 0.539,5.522 1.622,8.028 1.083,2.507 2.553,4.689 4.408,6.546 1.859,1.856 4.039,3.326 6.546,4.409 2.508,1.083 5.184,1.625 8.03,1.625 2.849,0 5.523,-0.542 8.03,-1.625 2.508,-1.083 4.688,-2.553 6.546,-4.409 1.855,-1.857 3.325,-4.039 4.409,-6.546 1.083,-2.506 1.624,-5.182 1.624,-8.028 0,-2.849 -0.541,-5.525 -1.624,-8.033 -1.084,-2.505 -2.554,-4.687 -4.409,-6.543 -1.858,-1.857 -4.038,-3.328 -6.546,-4.409 C 5.523,-35.281 2.849,-35.82 0,-35.82" /></g><g
           transform="translate(163.1797,62.1616)"
           id="g36"><path
             id="path38"
             style="fill:#100f0d;fill-opacity:1;fill-rule:nonzero;stroke:none"
             d="m 0,0 c -0.774,1.829 -1.842,3.427 -3.203,4.792 -1.364,1.363 -2.959,2.434 -4.785,3.21 -1.826,0.775 -3.762,1.163 -5.805,1.163 -2.603,0 -4.956,-0.574 -7.061,-1.722 -0.797,-0.435 -1.523,-0.95 -2.214,-1.504 v 0.01 c -0.029,-0.023 -0.051,-0.051 -0.078,-0.073 -0.461,-0.374 -0.898,-0.775 -1.309,-1.205 -0.106,-0.107 -0.215,-0.212 -0.318,-0.323 -0.348,-0.384 -0.673,-0.795 -0.986,-1.221 -0.095,-0.13 -0.209,-0.241 -0.303,-0.375 -0.091,0.134 -0.205,0.245 -0.3,0.375 -0.313,0.426 -0.638,0.837 -0.987,1.221 -0.102,0.111 -0.212,0.216 -0.317,0.323 -0.411,0.43 -0.848,0.831 -1.309,1.205 -0.026,0.022 -0.05,0.05 -0.079,0.073 v -0.01 c -0.689,0.554 -1.418,1.069 -2.214,1.504 -2.105,1.148 -4.458,1.722 -7.061,1.722 -2.043,0 -3.979,-0.388 -5.804,-1.163 -1.826,-0.776 -3.421,-1.847 -4.785,-3.21 -1.361,-1.365 -2.429,-2.963 -3.204,-4.792 -0.774,-1.831 -1.161,-3.768 -1.161,-5.815 v -23.633 c 0,-0.744 0.26,-1.382 0.778,-1.907 0.519,-0.527 1.175,-0.791 1.965,-0.791 0.733,0 1.358,0.264 1.875,0.793 0.519,0.528 0.779,1.166 0.779,1.912 v 23.694 c 0,1.306 0.25,2.534 0.748,3.685 0.499,1.15 1.185,2.161 2.056,3.033 0.874,0.869 1.887,1.553 3.04,2.05 1.152,0.497 2.383,0.747 3.692,0.747 1.31,0 2.555,-0.25 3.74,-0.747 1.184,-0.497 2.214,-1.181 3.086,-2.05 0.871,-0.872 1.557,-1.883 2.057,-3.033 0.17,-0.393 0.301,-0.801 0.413,-1.213 v -0.308 c 0.164,-0.696 0.255,-1.416 0.255,-2.164 v -23.694 c 0,-0.746 0.275,-1.384 0.822,-1.912 0.278,-0.268 0.579,-0.466 0.903,-0.599 0.309,-0.129 0.644,-0.194 1.007,-0.194 0.002,0 0.005,0 0.005,0 0.002,0 0.005,0 0.008,0 0.362,0 0.698,0.065 1.006,0.194 0.325,0.133 0.624,0.331 0.901,0.599 0.55,0.528 0.824,1.166 0.824,1.912 v 23.694 c 0,0.748 0.091,1.468 0.255,2.164 v 0.308 c 0.112,0.412 0.243,0.82 0.414,1.213 0.5,1.15 1.183,2.161 2.057,3.033 0.871,0.869 1.902,1.553 3.086,2.05 1.183,0.497 2.43,0.747 3.739,0.747 1.308,0 2.541,-0.25 3.693,-0.747 1.152,-0.497 2.166,-1.181 3.039,-2.05 0.872,-0.872 1.558,-1.883 2.057,-3.033 0.498,-1.151 0.748,-2.379 0.748,-3.685 v -23.694 c 0,-0.746 0.259,-1.384 0.777,-1.912 0.519,-0.529 1.144,-0.793 1.876,-0.793 0.791,0 1.447,0.264 1.966,0.791 0.518,0.525 0.779,1.163 0.779,1.907 V -5.815 C 1.163,-3.768 0.773,-1.831 0,0" /></g><g
           transform="translate(241.9814,65.8823)"
           id="g40"><path
             id="path42"
             style="fill:#100f0d;fill-opacity:1;fill-rule:nonzero;stroke:none"
             d="m 0,0 c -2.115,0 -4.092,-0.405 -5.927,-1.212 -1.834,-0.809 -3.436,-1.899 -4.807,-3.267 -1.369,-1.37 -2.456,-2.973 -3.265,-4.807 -0.809,-1.836 -1.213,-3.81 -1.213,-5.925 0,-2.118 0.404,-4.093 1.213,-5.929 0.809,-1.834 1.896,-3.437 3.265,-4.805 1.371,-1.369 2.973,-2.458 4.807,-3.267 1.835,-0.807 3.812,-1.213 5.927,-1.213 2.117,0 4.092,0.406 5.928,1.213 1.835,0.809 3.434,1.898 4.805,3.267 1.369,1.368 2.458,2.971 3.268,4.805 0.807,1.836 1.212,3.811 1.212,5.929 0,2.115 -0.405,4.089 -1.212,5.925 -0.81,1.834 -1.899,3.437 -3.268,4.807 -1.371,1.368 -2.97,2.458 -4.805,3.267 C 4.092,-0.405 2.117,0 0,0 m 0,-35.82 c -2.847,0 -5.523,0.539 -8.03,1.624 -2.505,1.081 -4.688,2.552 -6.544,4.409 -1.857,1.856 -3.325,4.038 -4.408,6.543 -1.086,2.508 -1.625,5.184 -1.625,8.033 0,2.846 0.539,5.522 1.625,8.028 1.083,2.507 2.551,4.689 4.408,6.546 1.856,1.856 4.039,3.326 6.544,4.409 2.507,1.083 5.183,1.625 8.03,1.625 2.848,0 5.522,-0.542 8.03,-1.625 2.507,-1.083 4.69,-2.553 6.546,-4.409 1.855,-1.857 3.325,-4.039 4.408,-6.546 1.083,-2.506 1.627,-5.182 1.627,-8.028 0,-2.849 -0.544,-5.525 -1.627,-8.033 -1.083,-2.505 -2.553,-4.687 -4.408,-6.543 C 12.72,-31.644 10.537,-33.115 8.03,-34.196 5.522,-35.281 2.848,-35.82 0,-35.82" /></g><g
           transform="translate(226.6562,49.8931)"
           id="g44"><path
             id="path46"
             style="fill:#100f0d;fill-opacity:1;fill-rule:nonzero;stroke:none"
             d="m 0,0 v 42.726 c 0,0.745 -0.263,1.38 -0.789,1.907 -0.53,0.526 -1.163,0.792 -1.91,0.792 -0.744,0 -1.38,-0.266 -1.907,-0.792 -0.527,-0.527 -0.79,-1.162 -0.79,-1.907 V 0 Z" /></g><g
           transform="translate(34.3623,31.3008)"
           id="g48"><path
             id="path50"
             style="fill:#100f0d;fill-opacity:1;fill-rule:nonzero;stroke:none"
             d="M 0,0 C 1.274,0 2.352,-0.356 2.788,1.926 H -2.789 C -2.353,-0.356 -1.275,0 0,0" /></g><g
           transform="translate(69.749,49.8779)"
           id="g52"><path
             id="path54"
             style="fill:#100f0d;fill-opacity:1;fill-rule:nonzero;stroke:none"
             d="m 0,0 c 0.441,0.43 0.643,1.158 0.643,2.051 v 4.233 2.509 8.902 c 0,2.492 -0.69,4.434 -2.069,5.774 -2.285,2.219 -5.761,2.139 -5.82,2.143 -0.33,-0.003 -8.088,-0.141 -8.088,-7.917 V -0.675 H -1.561 C -1.565,-0.675 -0.644,-0.624 0,0" /></g><g
           transform="translate(38.4541,49.2026)"
           id="g56"><path
             id="path58"
             style="fill:#100f0d;fill-opacity:1;fill-rule:nonzero;stroke:none"
             d="m 0,0 h 13.679 v 18.37 c 0,7.776 -7.723,7.915 -8.052,7.917 -0.059,-0.003 -3.535,0.077 -5.82,-2.143 -1.38,-1.339 -2.104,-3.282 -2.104,-5.774 V 9.469 6.959 2.727 c 0,-0.894 0.248,-1.622 0.689,-2.052 C -0.964,0.051 0.005,0 0,0" /></g><g
           transform="translate(77.5117,62.896)"
           id="g60"><path
             id="path62"
             style="fill:#100f0d;fill-opacity:1;fill-rule:nonzero;stroke:none"
             d="m 0,0 h -0.454 c -2.392,0 -4.384,-1.833 -4.384,-4.225 v -6.742 -0.444 h 0.021 c -0.065,-2.282 -0.499,-2.49 -1.33,-3.299 -1.231,-1.197 -2.822,-1.266 -3.157,-1.266 h -0.052 -13.694 -2.282 -13.693 -0.052 c -0.336,0 -1.926,0.069 -3.156,1.266 -0.831,0.809 -1.266,1.017 -1.331,3.299 h -0.073 v 0.444 6.742 c 0,2.392 -1.898,4.225 -4.29,4.225 h -0.455 c -2.391,0 -4.384,-1.833 -4.384,-4.225 v -18.712 c 0,-2.392 1.993,-4.45 4.384,-4.45 h 23.05 2.282 H 0 c 2.392,0 4.291,2.058 4.291,4.45 V -4.225 C 4.291,-1.833 2.392,0 0,0" /></g><g
           transform="translate(72.2803,31.3008)"
           id="g64"><path
             id="path66"
             style="fill:#100f0d;fill-opacity:1;fill-rule:nonzero;stroke:none"
             d="M 0,0 C 1.274,0 2.353,-0.356 2.789,1.926 H -2.788 C -2.352,-0.356 -1.275,0 0,0" /></g><g
           transform="translate(77.5117,33.2266)"
           id="g68"><path
             id="path70"
             style="fill:#100f0d;fill-opacity:1;fill-rule:nonzero;stroke:none"
             d="m 0,0 h -0.055 c -0.5,-2.282 -2.631,-4.208 -5.176,-4.208 -2.547,0 -4.676,1.926 -5.177,4.208 h -12.642 -2.282 -12.642 c -0.5,-2.282 -2.63,-4.208 -5.175,-4.208 -2.547,0 -4.677,1.926 -5.178,4.208 h -0.055 c -3.649,0 -6.666,3.083 -6.666,6.732 v 18.713 c 0,3.649 3.017,6.507 6.666,6.507 h 0.455 c 1.666,0 4.29,-0.528 4.29,-1.547 v 3.941 c 0,3.143 0.961,5.643 2.812,7.429 3,2.894 7.304,2.78 7.472,2.769 2.641,-10e-4 7.078,-1.197 9.157,-5.156 2.079,3.959 6.513,5.155 9.154,5.156 0.168,0.011 4.438,0.125 7.438,-2.769 1.851,-1.786 2.766,-4.286 2.766,-7.429 v -3.941 c 2.282,1.019 2.718,1.547 4.384,1.547 H 0 c 3.649,0 6.573,-2.858 6.573,-6.507 V 6.732 C 6.573,3.083 3.649,0 0,0 m -24.28,62.905 c -23.509,0 -42.565,-19.057 -42.565,-42.565 0,-23.507 19.056,-42.564 42.565,-42.564 23.508,0 42.565,19.057 42.565,42.564 0,23.508 -19.057,42.565 -42.565,42.565" /></g><g
           transform="translate(392.7695,92.6655)"
           id="g72"><path
             id="path74"
             style="fill:#231f20;fill-opacity:1;fill-rule:nonzero;stroke:none"
             d="m 0,0 v -3.436 h 0.992 c 1.112,0 1.799,0.341 2.057,1.024 0.104,0.244 0.157,0.495 0.157,0.752 0,0.737 -0.421,1.263 -1.264,1.577 C 1.824,-0.028 1.654,0 1.431,0 Z m -0.554,1.065 h 1.943 c 1.425,0 2.363,-0.724 2.808,-2.172 0.056,-0.146 0.084,-0.369 0.084,-0.668 0,-1.038 -0.543,-1.852 -1.629,-2.444 1.567,-2.7 2.385,-4.149 2.454,-4.344 V -8.635 C 4.995,-8.949 4.838,-9.105 4.636,-9.105 H 4.479 c -0.235,0 -0.516,0.34 -0.834,1.023 l -2.1,3.624 H 0 V -8.594 C -0.049,-8.935 -0.195,-9.105 -0.438,-9.105 H -0.71 c -0.237,0.132 -0.355,0.288 -0.355,0.47 v 9.147 c 0.055,0.369 0.225,0.553 0.511,0.553 m -4.239,-5.054 v -0.188 c 0,-2.262 1.083,-4.103 3.247,-5.524 1.1,-0.549 2.168,-0.824 3.206,-0.824 2.208,0 4.016,0.985 5.43,2.955 0.689,1.107 1.034,2.276 1.034,3.508 0,2.22 -1.031,4.048 -3.091,5.482 C 3.934,2.025 2.874,2.329 1.858,2.329 H 1.462 c -1.971,0 -3.659,-0.895 -5.065,-2.684 -0.793,-1.142 -1.19,-2.353 -1.19,-3.634 M 1.66,3.467 c 2.533,0 4.636,-1.132 6.307,-3.394 0.842,-1.281 1.263,-2.673 1.263,-4.177 0,-2.694 -1.252,-4.862 -3.758,-6.505 -1.204,-0.683 -2.499,-1.023 -3.885,-1.023 -2.283,0 -4.25,0.971 -5.899,2.913 -1.086,1.448 -1.629,2.987 -1.629,4.615 0,2.458 1.083,4.521 3.247,6.192 1.379,0.919 2.83,1.379 4.354,1.379" /></g></g></g></g></svg>